<svg xmlns="http://www.w3.org/2000/svg" width="960" height="640" viewBox="0 0 960 640" font-family="Arial">
<rect width="960" height="640" fill="#0e1116"/>
<text x="20" y="26" fill="#e8eaed" font-size="17" font-weight="bold">REPLAY PAPER — RUNEUSDT 15m, Senin 31/8/2026 (WIB) · zona luar 0.4618/0.4428/0.4194</text>
<rect x="70" y="370.7894736842104" width="880" height="657.0760233918127" fill="#ff980022"/>
<line x1="70" y1="370.7894736842104" x2="950" y2="370.7894736842104" stroke="#ffb74d" stroke-width="1.3" stroke-dasharray="6 4"/>
<text x="946" y="366.7894736842104" fill="#ffb74d" font-size="11" text-anchor="end">PINTU 0.4618</text>
<line x1="70" y1="665.2339181286542" x2="950" y2="665.2339181286542" stroke="#ffcc80" stroke-width="1.3" stroke-dasharray="6 4"/>
<text x="946" y="661.2339181286542" fill="#ffcc80" font-size="11" text-anchor="end">MANIS 0.4428</text>
<line x1="70" y1="1027.865497076023" x2="950" y2="1027.865497076023" stroke="#ef9a9a" stroke-width="1.3" stroke-dasharray="6 4"/>
<text x="946" y="1023.8654970760231" fill="#ef9a9a" font-size="11" text-anchor="end">BATAL 0.4194</text>
<line x1="70.0" y1="177.0760233918126" x2="70.0" y2="225.11695906432706" stroke="#ef5350" stroke-width="1"/>
<rect x="66.33333333333333" y="197.2222222222223" width="7.333333333333332" height="17.046783625730853" fill="#ef5350"/>
<line x1="82.22222222222223" y1="214.26900584795317" x2="82.22222222222223" y2="263.8596491228067" stroke="#ef5350" stroke-width="1"/>
<rect x="78.55555555555556" y="214.26900584795317" width="7.333333333333332" height="30.994152046783626" fill="#ef5350"/>
<line x1="94.44444444444444" y1="235.96491228070187" x2="94.44444444444444" y2="263.8596491228067" stroke="#ef5350" stroke-width="1"/>
<rect x="90.77777777777777" y="245.2631578947368" width="7.333333333333332" height="12.397660818712978" fill="#ef5350"/>
<line x1="106.66666666666666" y1="184.8245614035085" x2="106.66666666666666" y2="262.30994152046765" stroke="#26a69a" stroke-width="1"/>
<rect x="102.99999999999999" y="228.21637426900597" width="7.333333333333332" height="29.444444444443803" fill="#26a69a"/>
<line x1="118.88888888888889" y1="223.5672514619881" x2="118.88888888888889" y2="262.30994152046765" stroke="#ef5350" stroke-width="1"/>
<rect x="115.22222222222221" y="226.6666666666661" width="7.333333333333332" height="17.046783625731706" fill="#ef5350"/>
<line x1="131.11111111111111" y1="229.76608187134497" x2="131.11111111111111" y2="259.2105263157896" stroke="#26a69a" stroke-width="1"/>
<rect x="127.44444444444444" y="234.415204678362" width="7.333333333333332" height="9.298245614035807" fill="#26a69a"/>
<line x1="143.33333333333331" y1="204.9707602339182" x2="143.33333333333331" y2="235.96491228070187" stroke="#26a69a" stroke-width="1"/>
<rect x="139.66666666666666" y="218.9181286549702" width="7.333333333333332" height="17.046783625731678" fill="#26a69a"/>
<line x1="155.55555555555554" y1="161.57894736842078" x2="155.55555555555554" y2="222.01754385964907" stroke="#26a69a" stroke-width="1"/>
<rect x="151.88888888888889" y="175.52631578947359" width="7.333333333333332" height="43.391812865496604" fill="#26a69a"/>
<line x1="167.77777777777777" y1="153.83040935672489" x2="167.77777777777777" y2="178.62573099415164" stroke="#26a69a" stroke-width="1"/>
<rect x="164.11111111111111" y="163.12865497075978" width="7.333333333333332" height="12.397660818713803" fill="#26a69a"/>
<line x1="180.0" y1="139.88304093567206" x2="180.0" y2="167.7777777777777" stroke="#26a69a" stroke-width="1"/>
<rect x="176.33333333333334" y="149.18128654970698" width="7.333333333333332" height="13.9473684210528" fill="#26a69a"/>
<line x1="192.22222222222223" y1="150.73099415204683" x2="192.22222222222223" y2="209.61988304093526" stroke="#ef5350" stroke-width="1"/>
<rect x="188.55555555555557" y="152.28070175438586" width="7.333333333333332" height="57.339181286549405" fill="#ef5350"/>
<line x1="204.44444444444446" y1="195.67251461988243" x2="204.44444444444446" y2="235.96491228070187" stroke="#26a69a" stroke-width="1"/>
<rect x="200.7777777777778" y="203.42105263157836" width="7.333333333333332" height="4.649122807017903" fill="#26a69a"/>
<line x1="216.66666666666666" y1="164.6783625730988" x2="216.66666666666666" y2="211.16959064327426" stroke="#26a69a" stroke-width="1"/>
<rect x="213.0" y="166.2280701754387" width="7.333333333333332" height="38.742690058479525" fill="#26a69a"/>
<line x1="228.88888888888889" y1="163.12865497075978" x2="228.88888888888889" y2="191.0233918128654" stroke="#ef5350" stroke-width="1"/>
<rect x="225.22222222222223" y="167.7777777777777" width="7.333333333333332" height="17.046783625730825" fill="#ef5350"/>
<line x1="241.11111111111111" y1="186.3742690058475" x2="241.11111111111111" y2="287.10526315789434" stroke="#ef5350" stroke-width="1"/>
<rect x="237.44444444444446" y="186.3742690058475" width="7.333333333333332" height="82.13450292397704" fill="#ef5350"/>
<line x1="253.33333333333334" y1="228.21637426900597" x2="253.33333333333334" y2="273.15789473684157" stroke="#26a69a" stroke-width="1"/>
<rect x="249.66666666666669" y="254.56140350877172" width="7.333333333333332" height="13.947368421052829" fill="#26a69a"/>
<line x1="265.55555555555554" y1="249.91228070175384" x2="265.55555555555554" y2="341.3450292397658" stroke="#ef5350" stroke-width="1"/>
<rect x="261.88888888888886" y="254.56140350877172" width="7.333333333333332" height="38.74269005847958" fill="#ef5350"/>
<line x1="277.77777777777777" y1="279.35672514619847" x2="277.77777777777777" y2="327.3976608187129" stroke="#ef5350" stroke-width="1"/>
<rect x="274.1111111111111" y="294.85380116959027" width="7.333333333333332" height="6.198830409356901" fill="#ef5350"/>
<line x1="290.0" y1="235.96491228070187" x2="290.0" y2="304.1520467836252" stroke="#26a69a" stroke-width="1"/>
<rect x="286.3333333333333" y="262.30994152046765" width="7.333333333333332" height="41.84210526315758" fill="#26a69a"/>
<line x1="302.22222222222223" y1="259.2105263157896" x2="302.22222222222223" y2="293.3040935672513" stroke="#ef5350" stroke-width="1"/>
<rect x="298.55555555555554" y="260.7602339181286" width="7.333333333333332" height="15.497076023391855" fill="#ef5350"/>
<line x1="314.44444444444446" y1="217.3684210526312" x2="314.44444444444446" y2="297.9532163742683" stroke="#26a69a" stroke-width="1"/>
<rect x="310.77777777777777" y="257.66081871344977" width="7.333333333333332" height="18.596491228070704" fill="#26a69a"/>
<line x1="326.6666666666667" y1="254.56140350877172" x2="326.6666666666667" y2="308.8011695906431" stroke="#ef5350" stroke-width="1"/>
<rect x="323.0" y="259.2105263157896" width="7.333333333333332" height="43.391812865496604" fill="#ef5350"/>
<line x1="338.8888888888889" y1="274.70760233918054" x2="338.8888888888889" y2="325.8479532163739" stroke="#26a69a" stroke-width="1"/>
<rect x="335.22222222222223" y="293.3040935672513" width="7.333333333333332" height="9.298245614034897" fill="#26a69a"/>
<line x1="351.1111111111111" y1="274.70760233918054" x2="351.1111111111111" y2="305.7017543859642" stroke="#26a69a" stroke-width="1"/>
<rect x="347.4444444444444" y="294.85380116959027" width="7.333333333333332" height="1" fill="#26a69a"/>
<line x1="363.3333333333333" y1="294.85380116959027" x2="363.3333333333333" y2="344.4444444444438" stroke="#ef5350" stroke-width="1"/>
<rect x="359.66666666666663" y="294.85380116959027" width="7.333333333333332" height="41.84210526315758" fill="#ef5350"/>
<line x1="375.55555555555554" y1="335.1461988304088" x2="375.55555555555554" y2="508.71345029239694" stroke="#ef5350" stroke-width="1"/>
<rect x="371.88888888888886" y="336.69590643274785" width="7.333333333333332" height="145.67251461988332" fill="#ef5350"/>
<line x1="387.77777777777777" y1="440.5263157894736" x2="387.77777777777777" y2="505.6140350877189" stroke="#26a69a" stroke-width="1"/>
<rect x="384.1111111111111" y="474.6198830409353" width="7.333333333333332" height="7.748538011695871" fill="#26a69a"/>
<line x1="400.0" y1="440.5263157894736" x2="400.0" y2="549.0058479532163" stroke="#26a69a" stroke-width="1"/>
<rect x="396.3333333333333" y="456.02339181286544" width="7.333333333333332" height="20.14619883040882" fill="#26a69a"/>
<line x1="412.22222222222223" y1="403.33333333333303" x2="412.22222222222223" y2="500.964912280701" stroke="#26a69a" stroke-width="1"/>
<rect x="408.55555555555554" y="409.53216374268993" width="7.333333333333332" height="48.04093567251448" fill="#26a69a"/>
<line x1="424.44444444444446" y1="321.19883040935605" x2="424.44444444444446" y2="417.28070175438586" stroke="#26a69a" stroke-width="1"/>
<rect x="420.77777777777777" y="322.7485380116959" width="7.333333333333332" height="85.23391812865503" fill="#26a69a"/>
<line x1="436.6666666666667" y1="291.7543859649122" x2="436.6666666666667" y2="335.1461988304088" stroke="#26a69a" stroke-width="1"/>
<rect x="433.0" y="302.6023391812862" width="7.333333333333332" height="20.14619883040973" fill="#26a69a"/>
<line x1="448.8888888888889" y1="288.65497076023337" x2="448.8888888888889" y2="313.4502923976601" stroke="#ef5350" stroke-width="1"/>
<rect x="445.22222222222223" y="302.6023391812862" width="7.333333333333332" height="4.649122807017875" fill="#ef5350"/>
<line x1="461.1111111111111" y1="304.1520467836252" x2="461.1111111111111" y2="375.43859649122743" stroke="#ef5350" stroke-width="1"/>
<rect x="457.4444444444444" y="307.2514619883041" width="7.333333333333332" height="55.78947368421041" fill="#ef5350"/>
<line x1="473.3333333333333" y1="324.2982456140349" x2="473.3333333333333" y2="380.0877192982453" stroke="#26a69a" stroke-width="1"/>
<rect x="469.66666666666663" y="339.79532163742675" width="7.333333333333332" height="24.795321637426696" fill="#26a69a"/>
<line x1="485.55555555555554" y1="285.5555555555554" x2="485.55555555555554" y2="363.0409356725145" stroke="#ef5350" stroke-width="1"/>
<rect x="481.88888888888886" y="341.3450292397658" width="7.333333333333332" height="9.298245614034897" fill="#ef5350"/>
<line x1="497.77777777777777" y1="345.99415204678365" x2="497.77777777777777" y2="437.42690058479474" stroke="#ef5350" stroke-width="1"/>
<rect x="494.1111111111111" y="350.6432748538007" width="7.333333333333332" height="55.78947368421041" fill="#ef5350"/>
<line x1="510.0" y1="363.0409356725145" x2="510.0" y2="426.5789473684208" stroke="#26a69a" stroke-width="1"/>
<rect x="506.3333333333333" y="367.6900584795315" width="7.333333333333332" height="40.29239766081946" fill="#26a69a"/>
<line x1="522.2222222222222" y1="361.4912280701755" x2="522.2222222222222" y2="387.83625730994123" stroke="#ef5350" stroke-width="1"/>
<rect x="518.5555555555555" y="367.6900584795315" width="7.333333333333332" height="13.947368421052829" fill="#ef5350"/>
<line x1="534.4444444444445" y1="344.4444444444438" x2="534.4444444444445" y2="390.9356725146192" stroke="#26a69a" stroke-width="1"/>
<rect x="530.7777777777778" y="349.0935672514617" width="7.333333333333332" height="32.54385964912262" fill="#26a69a"/>
<line x1="546.6666666666667" y1="332.0467836257308" x2="546.6666666666667" y2="381.63742690058433" stroke="#26a69a" stroke-width="1"/>
<rect x="543.0000000000001" y="335.1461988304088" width="7.333333333333332" height="15.497076023391855" fill="#26a69a"/>
<line x1="558.8888888888889" y1="328.947368421052" x2="558.8888888888889" y2="387.83625730994123" stroke="#26a69a" stroke-width="1"/>
<rect x="555.2222222222223" y="332.0467836257308" width="7.333333333333332" height="4.649122807017022" fill="#26a69a"/>
<line x1="571.1111111111111" y1="301.05263157894717" x2="571.1111111111111" y2="355.29239766081855" stroke="#26a69a" stroke-width="1"/>
<rect x="567.4444444444445" y="310.3508771929821" width="7.333333333333332" height="23.245614035087726" fill="#26a69a"/>
<line x1="583.3333333333334" y1="294.85380116959027" x2="583.3333333333334" y2="338.2456140350877" stroke="#26a69a" stroke-width="1"/>
<rect x="579.6666666666667" y="294.85380116959027" width="7.333333333333332" height="17.046783625730882" fill="#26a69a"/>
<line x1="595.5555555555555" y1="287.10526315789434" x2="595.5555555555555" y2="308.8011695906431" stroke="#ef5350" stroke-width="1"/>
<rect x="591.8888888888889" y="294.85380116959027" width="7.333333333333332" height="9.298245614034954" fill="#ef5350"/>
<line x1="607.7777777777778" y1="299.50292397660814" x2="607.7777777777778" y2="344.4444444444438" stroke="#ef5350" stroke-width="1"/>
<rect x="604.1111111111112" y="304.1520467836252" width="7.333333333333332" height="26.34502923976663" fill="#ef5350"/>
<line x1="620.0" y1="310.3508771929821" x2="620.0" y2="333.59649122806985" stroke="#26a69a" stroke-width="1"/>
<rect x="616.3333333333334" y="322.7485380116959" width="7.333333333333332" height="9.298245614034897" fill="#26a69a"/>
<line x1="632.2222222222222" y1="305.7017543859642" x2="632.2222222222222" y2="336.69590643274785" stroke="#26a69a" stroke-width="1"/>
<rect x="628.5555555555555" y="310.3508771929821" width="7.333333333333332" height="12.397660818713803" fill="#26a69a"/>
<line x1="644.4444444444445" y1="296.4035087719293" x2="644.4444444444445" y2="318.099415204678" stroke="#ef5350" stroke-width="1"/>
<rect x="640.7777777777778" y="310.3508771929821" width="7.333333333333332" height="1.5497076023390264" fill="#ef5350"/>
<line x1="656.6666666666666" y1="276.2573099415205" x2="656.6666666666666" y2="318.099415204678" stroke="#26a69a" stroke-width="1"/>
<rect x="653.0" y="294.85380116959027" width="7.333333333333332" height="18.59649122806985" fill="#26a69a"/>
<line x1="668.8888888888889" y1="251.4619883040937" x2="668.8888888888889" y2="297.9532163742683" stroke="#26a69a" stroke-width="1"/>
<rect x="665.2222222222223" y="271.60818713450254" width="7.333333333333332" height="23.245614035087726" fill="#26a69a"/>
<line x1="681.1111111111111" y1="259.2105263157896" x2="681.1111111111111" y2="287.10526315789434" stroke="#26a69a" stroke-width="1"/>
<rect x="677.4444444444445" y="263.8596491228067" width="7.333333333333332" height="7.748538011695871" fill="#26a69a"/>
<line x1="693.3333333333334" y1="259.2105263157896" x2="693.3333333333334" y2="276.2573099415205" stroke="#ef5350" stroke-width="1"/>
<rect x="689.6666666666667" y="263.8596491228067" width="7.333333333333332" height="4.649122807017875" fill="#ef5350"/>
<line x1="705.5555555555555" y1="246.81286549707582" x2="705.5555555555555" y2="284.0058479532164" stroke="#26a69a" stroke-width="1"/>
<rect x="701.8888888888889" y="257.66081871344977" width="7.333333333333332" height="12.397660818713746" fill="#26a69a"/>
<line x1="717.7777777777778" y1="237.5146198830409" x2="717.7777777777778" y2="266.9590643274846" stroke="#26a69a" stroke-width="1"/>
<rect x="714.1111111111112" y="253.01169590643272" width="7.333333333333332" height="6.198830409356873" fill="#26a69a"/>
<line x1="730.0" y1="248.36257309941482" x2="730.0" y2="277.80701754385944" stroke="#ef5350" stroke-width="1"/>
<rect x="726.3333333333334" y="254.56140350877172" width="7.333333333333332" height="3.0994152046780528" fill="#ef5350"/>
<line x1="742.2222222222222" y1="254.56140350877172" x2="742.2222222222222" y2="276.2573099415205" stroke="#ef5350" stroke-width="1"/>
<rect x="738.5555555555555" y="259.2105263157896" width="7.333333333333332" height="6.198830409356049" fill="#ef5350"/>
<line x1="754.4444444444445" y1="251.4619883040937" x2="754.4444444444445" y2="274.70760233918054" stroke="#26a69a" stroke-width="1"/>
<rect x="750.7777777777778" y="263.8596491228067" width="7.333333333333332" height="3.099415204677939" fill="#26a69a"/>
<line x1="766.6666666666666" y1="239.0643274853799" x2="766.6666666666666" y2="265.40935672514564" stroke="#26a69a" stroke-width="1"/>
<rect x="763.0" y="256.11111111111074" width="7.333333333333332" height="7.748538011695928" fill="#26a69a"/>
<line x1="778.8888888888889" y1="256.11111111111074" x2="778.8888888888889" y2="288.65497076023337" stroke="#ef5350" stroke-width="1"/>
<rect x="775.2222222222223" y="256.11111111111074" width="7.333333333333332" height="9.298245614034897" fill="#ef5350"/>
<line x1="791.1111111111111" y1="262.30994152046765" x2="791.1111111111111" y2="277.80701754385944" stroke="#26a69a" stroke-width="1"/>
<rect x="787.4444444444445" y="263.8596491228067" width="7.333333333333332" height="1.5497076023389695" fill="#26a69a"/>
<line x1="803.3333333333334" y1="231.31578947368396" x2="803.3333333333334" y2="287.10526315789434" stroke="#26a69a" stroke-width="1"/>
<rect x="799.6666666666667" y="259.2105263157896" width="7.333333333333332" height="4.649122807017079" fill="#26a69a"/>
<line x1="815.5555555555555" y1="260.7602339181286" x2="815.5555555555555" y2="288.65497076023337" stroke="#ef5350" stroke-width="1"/>
<rect x="811.8888888888889" y="260.7602339181286" width="7.333333333333332" height="13.94736842105192" fill="#ef5350"/>
<line x1="827.7777777777778" y1="228.21637426900597" x2="827.7777777777778" y2="280.90643274853744" stroke="#26a69a" stroke-width="1"/>
<rect x="824.1111111111112" y="243.7134502923978" width="7.333333333333332" height="29.444444444443775" fill="#26a69a"/>
<line x1="840.0" y1="223.5672514619881" x2="840.0" y2="257.66081871344977" stroke="#26a69a" stroke-width="1"/>
<rect x="836.3333333333334" y="235.96491228070187" width="7.333333333333332" height="7.748538011695928" fill="#26a69a"/>
<line x1="852.2222222222222" y1="222.01754385964907" x2="852.2222222222222" y2="257.66081871344977" stroke="#ef5350" stroke-width="1"/>
<rect x="848.5555555555555" y="239.0643274853799" width="7.333333333333332" height="1.549707602338998" fill="#ef5350"/>
<line x1="864.4444444444445" y1="232.865497076023" x2="864.4444444444445" y2="254.56140350877172" stroke="#ef5350" stroke-width="1"/>
<rect x="860.7777777777778" y="240.6140350877189" width="7.333333333333332" height="13.947368421052829" fill="#ef5350"/>
<line x1="876.6666666666666" y1="237.5146198830409" x2="876.6666666666666" y2="260.7602339181286" stroke="#26a69a" stroke-width="1"/>
<rect x="873.0" y="237.5146198830409" width="7.333333333333332" height="18.59649122806985" fill="#26a69a"/>
<line x1="888.8888888888889" y1="209.61988304093526" x2="888.8888888888889" y2="251.4619883040937" stroke="#ef5350" stroke-width="1"/>
<rect x="885.2222222222223" y="239.0643274853799" width="7.333333333333332" height="4.649122807017903" fill="#ef5350"/>
<line x1="901.1111111111111" y1="80.99415204678365" x2="901.1111111111111" y2="249.91228070175384" stroke="#26a69a" stroke-width="1"/>
<rect x="897.4444444444445" y="187.92397660818654" width="7.333333333333332" height="58.888888888889284" fill="#26a69a"/>
<line x1="913.3333333333334" y1="156.92982456140288" x2="913.3333333333334" y2="200.32163742690034" stroke="#26a69a" stroke-width="1"/>
<rect x="909.6666666666667" y="170.8771929824557" width="7.333333333333332" height="17.046783625730825" fill="#26a69a"/>
<line x1="925.5555555555555" y1="108.88888888888842" x2="925.5555555555555" y2="177.0760233918126" stroke="#26a69a" stroke-width="1"/>
<rect x="921.8888888888889" y="147.63157894736798" width="7.333333333333332" height="24.795321637426724" fill="#26a69a"/>
<line x1="937.7777777777778" y1="138.33333333333303" x2="937.7777777777778" y2="186.3742690058475" stroke="#ef5350" stroke-width="1"/>
<rect x="934.1111111111112" y="147.63157894736798" width="7.333333333333332" height="26.345029239766603" fill="#ef5350"/>
<text x="70.0" y="602" fill="#9aa0a6" font-size="10" text-anchor="middle">00:00</text>
<text x="167.77777777777777" y="602" fill="#9aa0a6" font-size="10" text-anchor="middle">02:00</text>
<text x="265.55555555555554" y="602" fill="#9aa0a6" font-size="10" text-anchor="middle">04:00</text>
<text x="363.3333333333333" y="602" fill="#9aa0a6" font-size="10" text-anchor="middle">06:00</text>
<text x="461.1111111111111" y="602" fill="#9aa0a6" font-size="10" text-anchor="middle">08:00</text>
<text x="558.8888888888889" y="602" fill="#9aa0a6" font-size="10" text-anchor="middle">10:00</text>
<text x="656.6666666666666" y="602" fill="#9aa0a6" font-size="10" text-anchor="middle">12:00</text>
<text x="754.4444444444445" y="602" fill="#9aa0a6" font-size="10" text-anchor="middle">14:00</text>
<text x="852.2222222222222" y="602" fill="#9aa0a6" font-size="10" text-anchor="middle">16:00</text>
<circle cx="277.77777777777777" cy="58" r="11" fill="#ffb74d"/>
<text x="277.77777777777777" y="62" fill="#111" font-size="10" font-weight="bold" text-anchor="middle">1A</text>
<line x1="277.77777777777777" y1="69" x2="277.77777777777777" y2="580" stroke="#ffb74d" stroke-width="0.6" stroke-dasharray="2 3" opacity="0.5"/>
<circle cx="290.0" cy="58" r="11" fill="#90caf9"/>
<text x="290.0" y="62" fill="#111" font-size="10" font-weight="bold" text-anchor="middle">EA</text>
<line x1="290.0" y1="69" x2="290.0" y2="580" stroke="#90caf9" stroke-width="0.6" stroke-dasharray="2 3" opacity="0.5"/>
<circle cx="363.3333333333333" cy="58" r="11" fill="#ef5350"/>
<text x="363.3333333333333" y="62" fill="#111" font-size="10" font-weight="bold" text-anchor="middle">-1R</text>
<line x1="363.3333333333333" y1="69" x2="363.3333333333333" y2="580" stroke="#ef5350" stroke-width="0.6" stroke-dasharray="2 3" opacity="0.5"/>
<circle cx="400.0" cy="58" r="11" fill="#ffb74d"/>
<text x="400.0" y="62" fill="#111" font-size="10" font-weight="bold" text-anchor="middle">1B</text>
<line x1="400.0" y1="69" x2="400.0" y2="580" stroke="#ffb74d" stroke-width="0.6" stroke-dasharray="2 3" opacity="0.5"/>
<circle cx="412.22222222222223" cy="58" r="11" fill="#66bb6a"/>
<text x="412.22222222222223" y="62" fill="#111" font-size="10" font-weight="bold" text-anchor="middle">2B</text>
<line x1="412.22222222222223" y1="69" x2="412.22222222222223" y2="580" stroke="#66bb6a" stroke-width="0.6" stroke-dasharray="2 3" opacity="0.5"/>
<circle cx="901.1111111111111" cy="58" r="11" fill="#66bb6a"/>
<text x="901.1111111111111" y="62" fill="#111" font-size="10" font-weight="bold" text-anchor="middle">+2R</text>
<line x1="901.1111111111111" y1="69" x2="901.1111111111111" y2="580" stroke="#66bb6a" stroke-width="0.6" stroke-dasharray="2 3" opacity="0.5"/>
<line x1="70" y1="262.30994152046765" x2="950" y2="262.30994152046765" stroke="#90caf9" stroke-width="1" stroke-dasharray="3 3"/>
<text x="74" y="259.30994152046765" fill="#90caf9" font-size="10">entry A 0.4688</text>
<line x1="70" y1="327.3976608187129" x2="950" y2="327.3976608187129" stroke="#ef9a9a" stroke-width="1" stroke-dasharray="3 3"/>
<text x="74" y="324.3976608187129" fill="#ef9a9a" font-size="10">stop A 0.4646</text>
<line x1="70" y1="409.53216374268993" x2="950" y2="409.53216374268993" stroke="#42a5f5" stroke-width="1" stroke-dasharray="3 3"/>
<text x="74" y="406.53216374268993" fill="#42a5f5" font-size="10">ENTRY B 0.4593</text>
<line x1="70" y1="549.0058479532163" x2="950" y2="549.0058479532163" stroke="#ef5350" stroke-width="1" stroke-dasharray="3 3"/>
<text x="74" y="546.0058479532163" fill="#ef5350" font-size="10">STOP B 0.4503</text>
<line x1="70" y1="130.58479532163713" x2="950" y2="130.58479532163713" stroke="#66bb6a" stroke-width="1" stroke-dasharray="3 3"/>
<text x="74" y="127.58479532163713" fill="#66bb6a" font-size="10">TARGET B 0.4773</text>
<rect x="70" y="610" width="880" height="26" fill="#161b22"/>
<text x="78" y="627" fill="#cfd8dc" font-size="11.5">Trade A: 04:30 entry 0.4688 / stop 0.4646 → KENA STOP 06:00 = -1R (-0.31 USDT) · Trade B: 07:00 entry 0.4593 / stop 0.4503 / target 0.4773 → KENA TARGET 17:00 = +2R (+0.62 USDT) · NET +1R</text>
</svg>